<svg xmlns="http://www.w3.org/2000/svg" xmlns:xlink="http://www.w3.org/1999/xlink" xmlns:inkscape="http://www.inkscape.org/namespaces/inkscape" version="1.1" width="137.482" height="77.709" viewBox="0 0 137.482 77.709">
<path transform="matrix(1,0,0,-1,20.588,63.760999)" stroke-width=".99626" stroke-linecap="round" stroke-linejoin="round" fill="none" stroke="#000000" d="M9.96323 49.81308H49.81308"/>
<path transform="matrix(1,0,0,-1,20.588,63.760999)" d="M26.4948 46.87845 37.44678 49.81308 26.4948 52.74771Z"/>
<path transform="matrix(1,0,0,-1,20.588,63.760999)" stroke-width=".99626" stroke-linecap="round" stroke-linejoin="round" fill="none" stroke="#000000" d="M89.66293 0H49.81308"/>
<path transform="matrix(1,0,0,-1,20.588,63.760999)" d="M73.13136 2.93463 62.17938 0 73.13136-2.93463Z"/>
<path transform="matrix(1,0,0,-1,20.588,63.760999)" stroke-width=".99626" stroke-linecap="round" stroke-linejoin="round" fill="none" stroke="#000000" d="M49.81308 0V4.15082"/>
<path transform="matrix(1,0,0,-1,20.588,63.760999)" stroke-width=".99626" stroke-linecap="round" stroke-linejoin="round" fill="none" stroke="#000000" d="M49.81308 8.30243V12.45328"/>
<path transform="matrix(1,0,0,-1,20.588,63.760999)" stroke-width=".99626" stroke-linecap="round" stroke-linejoin="round" fill="none" stroke="#000000" d="M49.81308 16.6041V20.7557"/>
<path transform="matrix(1,0,0,-1,20.588,63.760999)" stroke-width=".99626" stroke-linecap="round" stroke-linejoin="round" fill="none" stroke="#000000" d="M49.81308 24.90656V29.05737"/>
<path transform="matrix(1,0,0,-1,20.588,63.760999)" stroke-width=".99626" stroke-linecap="round" stroke-linejoin="round" fill="none" stroke="#000000" d="M49.81308 33.20898V37.3598"/>
<path transform="matrix(1,0,0,-1,20.588,63.760999)" stroke-width=".99626" stroke-linecap="round" stroke-linejoin="round" fill="none" stroke="#000000" d="M49.81308 41.51065V45.66226"/>
<path transform="matrix(1,0,0,-1,20.588,63.760999)" d="M52.74763 21.51372 49.81308 32.4658 46.87852 21.51372Z"/>
<path transform="matrix(1,0,0,-1,20.588,63.760999)" stroke-width=".99626" stroke-linecap="round" stroke-linejoin="round" fill="none" stroke="#000000" d="M49.81308 0H9.96323"/>
<path transform="matrix(1,0,0,-1,20.588,63.760999)" d="M33.28151 2.93463 22.32953 0 33.28151-2.93463Z"/>
<path transform="matrix(1,0,0,-1,20.588,63.760999)" stroke-width=".99626" stroke-linecap="round" stroke-linejoin="round" fill="none" stroke="#000000" d="M49.81308 49.81308H89.66293"/>
<path transform="matrix(1,0,0,-1,20.588,63.760999)" d="M66.34465 46.87845 77.29663 49.81308 66.34465 52.74771Z"/>
<text xml:space="preserve" transform="matrix(1 0 -0 1 0 77.709)" font-size="9.9626" font-family="CMR10"><tspan y="-37.534" x="55.526">&#x02dc;</tspan></text>
<text xml:space="preserve" transform="matrix(1 0 -0 1 0 77.709)" font-size="9.9626" font-family="CMMI10" font-style="italic"><tspan y="-35.016" x="53.845">S</tspan></text>
<text xml:space="preserve" transform="matrix(1 0 -0 1 0 77.709)" font-size="6.9738" font-family="CMR7"><tspan y="-33.521" x="59.954004">1</tspan></text>
<text xml:space="preserve" transform="matrix(1 0 -0 1 0 77.709)" font-size="9.9626" font-family="CMR10"><tspan y="-4.1259996" x="20.854004">&#x02dc;</tspan></text>
<text xml:space="preserve" transform="matrix(1 0 -0 1 0 77.709)" font-size="9.9626" font-family="CMMI10" font-style="italic"><tspan y="-1.4969995" x="21.206004">b</tspan><tspan y="-66.929" x="21.206004">b</tspan><tspan y="-2.8470002" x="115.32">&#x03c4;</tspan></text>
<text xml:space="preserve" transform="matrix(1 0 -0 1 0 77.709)" font-size="6.9738" font-family="CMR7"><tspan y="-6.462" x="120.803">+</tspan></text>
<text xml:space="preserve" transform="matrix(1 0 -0 1 0 77.709)" font-size="9.9626" font-family="CMMI10" font-style="italic"><tspan y="-66.929" x="115.32">&#x03c4;</tspan></text>
<text xml:space="preserve" transform="matrix(1 0 -0 1 0 77.709)" font-size="6.9738" font-family="CMSY7" font-style="italic"><tspan y="-70.544" x="120.803">&#x2212;</tspan></text>
</svg>
